<?xml version="1.0" standalone="no"?>
<!DOCTYPE svg PUBLIC "-//W3C//DTD SVG 20010904//EN"
 "http://www.w3.org/TR/2001/REC-SVG-20010904/DTD/svg10.dtd">
<svg version="1.0" xmlns="http://www.w3.org/2000/svg"
 width="1254.000000pt" height="1254.000000pt" viewBox="0 0 1254.000000 1254.000000"
 preserveAspectRatio="xMidYMid meet">

<g transform="translate(0.000000,1254.000000) scale(0.100000,-0.100000)"
fill="#000000" stroke="none">
<path d="M5711 11229 c-879 -40 -1786 -195 -2369 -405 -534 -192 -861 -412
-985 -662 -41 -84 -42 -88 -42 -187 0 -97 1 -104 39 -180 54 -108 196 -251
356 -357 549 -363 1533 -620 2728 -713 1277 -99 2664 38 3632 358 454 150 762
317 971 526 86 86 113 121 145 185 38 77 39 84 39 181 0 100 -1 103 -44 191
-37 75 -60 105 -145 190 -64 63 -139 125 -203 167 -582 382 -1707 643 -3043
707 -243 11 -818 11 -1079 -1z"/>
<path d="M2310 8543 c0 -920 0 -922 22 -980 120 -324 629 -632 1408 -851 514
-145 1130 -244 1835 -294 241 -17 1170 -17 1410 0 1238 88 2244 339 2810 700
209 134 372 310 415 450 19 62 20 95 20 981 l0 916 -27 -35 c-126 -161 -286
-281 -561 -421 -381 -194 -880 -346 -1484 -453 -689 -123 -1354 -175 -2063
-163 -1018 18 -1920 153 -2651 395 -557 185 -912 391 -1107 642 l-27 35 0
-922z m7128 -429 c157 -78 169 -308 22 -454 -81 -82 -185 -110 -276 -75 -95
36 -144 106 -151 215 -7 96 22 167 101 246 96 96 201 119 304 68z"/>
<path d="M2310 6259 c0 -879 1 -918 19 -972 32 -92 70 -147 176 -253 464 -464
1630 -805 3100 -906 252 -17 1141 -17 1370 0 788 59 1396 164 1965 338 703
214 1177 521 1270 821 19 63 20 91 20 977 l-1 911 -21 -30 c-53 -75 -210 -216
-329 -294 -569 -377 -1543 -625 -2884 -733 -219 -18 -1227 -18 -1465 0 -560
42 -1126 124 -1535 221 -841 202 -1403 473 -1658 801 l-27 35 0 -916z m7108
-428 c70 -36 122 -126 122 -213 0 -53 -35 -153 -72 -205 -98 -136 -277 -164
-387 -60 -50 48 -71 100 -71 182 0 73 23 139 71 204 27 37 96 87 146 106 50
19 138 13 191 -14z"/>
<path d="M2313 3950 l2 -935 32 -69 c269 -566 1671 -1032 3364 -1117 268 -13
1099 -7 1324 10 1307 100 2372 391 2880 786 151 117 255 246 294 363 21 60 21
79 21 979 l-1 918 -21 -30 c-74 -102 -219 -230 -358 -315 -593 -368 -1616
-623 -2865 -712 -281 -20 -1198 -17 -1500 5 -763 56 -1460 182 -2020 364 -403
131 -784 322 -976 489 -48 43 -105 105 -161 177 -17 21 -18 -23 -15 -913z
m7158 -425 c27 -19 54 -51 72 -85 26 -50 29 -62 25 -135 -3 -65 -10 -91 -33
-134 -101 -186 -304 -234 -431 -103 -48 50 -67 107 -62 189 5 85 36 152 98
213 69 70 119 91 212 87 67 -2 82 -6 119 -32z"/>
</g>
</svg>
