<?xml version="1.0" standalone="no"?>
<!DOCTYPE svg PUBLIC "-//W3C//DTD SVG 20010904//EN"
 "http://www.w3.org/TR/2001/REC-SVG-20010904/DTD/svg10.dtd">
<svg version="1.0" xmlns="http://www.w3.org/2000/svg"
 width="512.000000pt" height="512.000000pt" viewBox="0 0 512.000000 512.000000"
 preserveAspectRatio="xMidYMid meet">

<g transform="translate(0.000000,512.000000) scale(0.100000,-0.100000)"
fill="#000000" stroke="none">
<path d="M2321 5110 c-868 -84 -1644 -610 -2037 -1382 -139 -273 -221 -536
-266 -853 -20 -140 -17 -504 6 -660 39 -278 121 -541 247 -794 249 -503 646
-900 1150 -1150 815 -406 1779 -350 2539 147 297 194 579 482 771 788 74 116
184 342 234 478 51 138 110 376 131 531 23 157 26 521 6 660 -59 415 -191 769
-410 1099 -92 140 -185 254 -315 385 -398 403 -895 653 -1462 737 -122 18
-466 26 -594 14z m509 -434 c491 -66 932 -289 1270 -642 299 -313 484 -683
565 -1129 23 -124 31 -425 16 -567 -81 -745 -540 -1390 -1217 -1709 -306 -145
-619 -207 -978 -196 -241 8 -436 44 -651 122 -689 249 -1201 836 -1359 1555
-39 178 -49 301 -43 514 5 197 18 296 62 467 217 847 936 1478 1810 1588 113
14 410 12 525 -3z"/>
<path d="M2612 3829 c-150 -19 -332 -80 -462 -154 -217 -123 -408 -321 -514
-532 l-26 -53 -165 0 -165 0 0 -210 0 -210 109 0 109 0 -2 -110 -1 -110 -107
0 -108 0 0 -210 0 -210 165 0 165 0 26 -52 c83 -166 254 -362 404 -465 320
-218 695 -284 1064 -188 80 21 345 125 368 144 6 5 -152 374 -165 387 -2 2
-66 -23 -143 -55 -180 -77 -268 -95 -428 -88 -145 6 -235 30 -356 93 -90 47
-213 142 -249 193 l-22 31 330 0 331 0 0 210 0 210 -419 0 -419 0 -6 23 c-3
12 -6 51 -6 87 0 36 3 75 6 88 l6 22 419 0 419 0 0 210 0 210 -331 0 -330 0
22 31 c36 51 159 146 249 193 121 63 211 87 356 93 160 7 248 -11 428 -88 77
-33 143 -56 147 -52 16 17 168 378 161 384 -23 20 -292 125 -370 145 -165 42
-335 53 -490 33z"/>
</g>
</svg>
