<?xml version="1.0" standalone="no"?>
<!DOCTYPE svg PUBLIC "-//W3C//DTD SVG 20010904//EN"
 "http://www.w3.org/TR/2001/REC-SVG-20010904/DTD/svg10.dtd">
<svg version="1.0" xmlns="http://www.w3.org/2000/svg"
 width="50.000000pt" height="50.000000pt" viewBox="0 0 50.000000 50.000000"
 preserveAspectRatio="xMidYMid meet">

<g transform="translate(0.000000,50.000000) scale(0.100000,-0.100000)"
fill="#000000" stroke="none">
<path d="M155 456 c-60 -28 -87 -56 -114 -116 -36 -79 -19 -183 42 -249 33
-36 115 -71 167 -71 56 0 137 37 172 78 50 60 75 167 39 167 -8 0 -19 -20 -26
-48 -43 -171 -245 -211 -342 -68 -58 86 -34 198 56 258 62 42 135 42 201 1
l35 -22 -25 -6 c-14 -3 -25 -12 -25 -20 0 -11 16 -16 63 -18 l63 -3 -3 63 c-2
48 -7 63 -18 63 -9 0 -17 -12 -20 -30 -4 -21 -8 -26 -14 -16 -15 24 -109 61
-156 61 -26 0 -66 -10 -95 -24z"/>
</g>
</svg>
