<?xml version="1.0" standalone="no"?>
<!DOCTYPE svg PUBLIC "-//W3C//DTD SVG 20010904//EN"
 "http://www.w3.org/TR/2001/REC-SVG-20010904/DTD/svg10.dtd">
<svg version="1.0" xmlns="http://www.w3.org/2000/svg"
 width="32.000000pt" height="32.000000pt" viewBox="0 0 32.000000 32.000000"
 preserveAspectRatio="xMidYMid meet">

<g transform="translate(0.000000,32.000000) scale(0.100000,-0.100000)"
fill="#000000" stroke="none">
<path d="M50 160 l0 -110 110 0 110 0 0 88 c0 80 -2 91 -23 110 -20 19 -35 22
-110 22 l-87 0 0 -110z m50 60 l0 -30 60 0 c58 0 60 1 60 26 0 22 2 25 15 14
17 -14 22 -160 5 -160 -5 0 -10 20 -10 45 l0 45 -70 0 -70 0 0 -45 c0 -25 -4
-45 -10 -45 -6 0 -10 37 -10 90 0 73 3 90 15 90 10 0 15 -10 15 -30z m64 18
c5 -10 7 -10 12 0 9 19 24 14 24 -8 0 -17 -7 -20 -40 -20 -33 0 -40 3 -40 20
0 23 34 28 44 8z m46 -133 l0 -35 -50 0 -50 0 0 35 0 35 50 0 50 0 0 -35z"/>
</g>
</svg>
